<svg width="1200" height="630" viewBox="0 0 1200 630" xmlns="http://www.w3.org/2000/svg">
  <!-- Sendora link-preview card: brand mark only, no text. Source for scripts/generate-og-image.mjs. -->
  <rect width="1200" height="630" fill="#0f3d26"/>
  <g transform="translate(144.93,12.66) scale(0.593)">
    <path d="M 753.8,813.2 L 748.1,813.4 L 742.5,812.3 L 737.2,810.0 L 732.6,806.6 L 728.8,802.5 L 725.3,797.9 L 721.9,793.3 L 718.6,788.7 L 715.1,784.0 L 711.7,779.4 L 708.2,774.8 L 704.7,770.2 L 701.1,765.7 L 697.5,761.1 L 693.8,756.6 L 690.1,752.1 L 686.3,747.6 L 682.5,743.2 L 678.7,738.7 L 674.8,734.3 L 670.9,729.9 L 667.0,725.5 L 663.0,721.1 L 658.9,716.7 L 654.8,712.4 L 650.6,708.1 L 646.3,703.8 L 642.0,699.7 L 637.7,695.5 L 633.3,691.5 L 628.9,687.5 L 624.5,683.6 L 620.1,679.7 L 615.6,675.8 L 611.2,671.9 L 606.7,668.1 L 602.3,664.4 L 597.8,660.7 L 593.2,657.1 L 588.6,653.5 L 584.0,649.9 L 579.6,646.2 L 575.3,642.3 L 571.7,637.9 L 569.2,633.0 L 567.9,627.5 L 567.4,621.6 L 567.4,615.5 L 567.5,609.4 L 567.5,603.4 L 567.6,597.4 L 567.6,591.3 L 567.5,585.3 L 567.5,579.3 L 567.5,573.2 L 567.5,567.2 L 567.4,561.1 L 567.4,555.1 L 567.4,549.0 L 567.5,543.0 L 567.5,537.0 L 567.6,530.9 L 567.6,524.9 L 567.6,518.9 L 567.6,512.8 L 567.5,506.8 L 567.4,500.7 L 567.2,494.6 L 567.3,488.6 L 568.1,482.9 L 569.9,477.5 L 573.0,472.7 L 577.0,468.7 L 581.8,465.5 L 586.8,463.0 L 592.0,460.8 L 597.1,458.4 L 602.0,455.9 L 607.1,453.5 L 612.2,451.2 L 617.2,448.8 L 622.3,446.1 L 626.3,442.4 L 628.3,437.4 L 628.8,431.6 L 628.6,425.4 L 628.4,419.2 L 628.4,413.1 L 628.4,407.1 L 628.4,401.1 L 628.5,395.1 L 628.6,389.1 L 628.6,383.1 L 628.6,377.1 L 628.5,371.0 L 628.5,364.9 L 628.4,358.8 L 628.3,352.7 L 628.3,346.7 L 628.5,340.7 L 628.7,334.8 L 629.1,328.9 L 629.8,323.2 L 630.7,317.5 L 631.8,312.0 L 633.3,306.5 L 635.0,301.1 L 636.9,295.8 L 638.9,290.7 L 641.1,285.6 L 643.5,280.6 L 646.1,275.7 L 648.9,270.8 L 652.0,266.0 L 655.3,261.3 L 658.9,256.6 L 662.7,252.1 L 666.7,247.7 L 670.9,243.5 L 675.2,239.6 L 679.7,235.9 L 684.3,232.4 L 689.1,229.2 L 693.9,226.1 L 698.8,223.3 L 703.8,220.7 L 708.8,218.3 L 714.0,216.2 L 719.2,214.2 L 724.5,212.4 L 729.8,210.9 L 735.3,209.5 L 740.9,208.4 L 746.5,207.5 L 752.4,206.9 L 758.3,206.5 L 764.3,206.3 L 770.3,206.4 L 776.3,206.5 L 782.3,206.9 L 788.1,207.5 L 793.8,208.2 L 799.4,209.3 L 804.8,210.7 L 810.2,212.2 L 815.5,214.0 L 820.8,216.0 L 825.9,218.2 L 831.0,220.6 L 835.9,223.1 L 840.7,225.9 L 845.5,228.9 L 850.3,232.2 L 854.9,235.7 L 859.4,239.5 L 863.8,243.5 L 868.0,247.6 L 872.0,251.9 L 875.8,256.4 L 879.3,261.0 L 882.7,265.7 L 885.8,270.4 L 888.7,275.3 L 891.4,280.2 L 893.9,285.2 L 896.2,290.3 L 898.3,295.5 L 900.1,300.7 L 901.8,306.0 L 903.2,311.5 L 904.5,317.0 L 905.5,322.6 L 906.4,328.4 L 907.0,334.2 L 907.5,340.1 L 907.6,346.0 L 907.5,351.9 L 907.2,357.9 L 906.6,363.8 L 905.9,369.6 L 905.1,375.3 L 904.1,380.9 L 903.0,386.4 L 901.6,391.8 L 899.9,397.2 L 897.9,402.4 L 895.5,407.5 L 892.5,412.4 L 889.0,416.8 L 884.9,420.8 L 880.4,424.2 L 875.5,427.1 L 870.4,429.3 L 865.1,431.2 L 859.8,433.0 L 854.6,434.9 L 849.4,436.9 L 844.2,439.0 L 839.0,441.0 L 833.8,443.0 L 828.5,444.9 L 823.3,446.9 L 818.1,448.8 L 812.8,450.7 L 807.6,452.7 L 802.4,454.6 L 797.1,456.6 L 791.9,458.5 L 786.7,460.5 L 781.4,462.4 L 776.2,464.4 L 771.0,466.3 L 765.7,468.3 L 760.5,470.2 L 755.3,472.2 L 750.0,474.1 L 744.8,476.1 L 739.6,478.0 L 734.3,480.0 L 729.1,481.9 L 723.9,483.9 L 718.6,485.8 L 713.4,487.8 L 708.2,489.8 L 703.0,491.8 L 697.8,493.7 L 692.5,495.7 L 687.3,497.6 L 682.0,499.6 L 676.9,501.5 L 671.6,503.5 L 666.3,505.3 L 661.4,507.9 L 658.0,512.1 L 656.5,517.5 L 656.4,523.5 L 656.5,529.6 L 656.6,535.7 L 656.6,541.7 L 656.5,547.7 L 656.4,553.7 L 656.4,559.8 L 656.4,565.8 L 656.7,571.9 L 657.7,577.6 L 661.3,581.4 L 666.7,583.7 L 672.0,585.8 L 677.1,588.0 L 682.1,590.1 L 687.3,592.2 L 692.5,594.3 L 697.7,596.4 L 702.9,598.6 L 708.0,600.8 L 713.1,603.0 L 718.2,605.1 L 723.4,607.2 L 728.5,609.5 L 733.6,611.9 L 738.8,613.9 L 744.0,613.3 L 746.5,608.4 L 746.6,602.3 L 746.4,596.2 L 746.5,590.3 L 746.5,584.2 L 746.5,578.1 L 746.4,572.1 L 746.6,566.1 L 747.2,560.4 L 749.2,555.0 L 752.8,550.5 L 757.5,547.2 L 762.4,544.4 L 767.3,541.5 L 772.2,538.8 L 777.1,536.1 L 782.0,533.4 L 787.0,530.8 L 791.9,528.2 L 796.9,525.5 L 801.9,523.0 L 806.8,520.4 L 811.8,517.8 L 816.8,515.3 L 821.8,512.8 L 826.8,510.3 L 831.8,507.8 L 836.8,505.3 L 841.8,502.9 L 846.8,500.4 L 851.8,497.8 L 856.9,495.3 L 861.9,492.8 L 866.9,490.3 L 871.9,487.8 L 876.8,485.3 L 881.8,482.8 L 886.8,480.3 L 891.8,477.8 L 896.9,475.3 L 901.9,472.8 L 906.9,470.3 L 912.0,467.8 L 916.9,465.5 L 921.9,463.3 L 927.4,460.8 L 931.5,457.6 L 929.5,454.2 L 924.0,452.0 L 918.8,450.1 L 914.1,447.1 L 914.4,442.0 L 919.5,438.8 L 925.3,438.2 L 930.7,439.6 L 935.9,441.9 L 941.1,444.2 L 946.2,446.3 L 951.3,448.6 L 956.1,451.5 L 960.5,455.2 L 964.1,459.7 L 966.3,464.8 L 967.3,470.5 L 967.5,476.4 L 967.5,482.5 L 967.4,488.6 L 967.5,494.6 L 967.5,500.6 L 967.6,506.6 L 967.5,512.7 L 967.5,518.7 L 967.5,524.7 L 967.4,530.8 L 967.5,536.8 L 967.5,542.9 L 967.5,549.0 L 967.6,555.0 L 967.6,561.1 L 967.5,567.1 L 967.5,573.1 L 967.3,579.0 L 966.8,584.8 L 965.9,590.5 L 964.3,596.0 L 962.0,601.1 L 959.0,605.9 L 955.2,610.1 L 950.8,614.0 L 946.2,617.7 L 941.6,621.4 L 937.2,625.2 L 932.8,629.0 L 928.3,632.8 L 923.9,636.6 L 919.4,640.4 L 915.0,644.3 L 910.5,648.2 L 906.1,652.1 L 901.7,656.1 L 897.4,660.2 L 893.0,664.2 L 888.7,668.3 L 884.3,672.4 L 880.0,676.5 L 875.6,680.5 L 871.2,684.6 L 866.9,688.8 L 862.6,692.9 L 858.4,697.2 L 854.2,701.5 L 850.1,705.8 L 846.0,710.2 L 841.9,714.5 L 837.8,718.9 L 833.8,723.2 L 829.8,727.6 L 825.8,732.0 L 822.0,736.5 L 818.3,740.9 L 814.5,745.4 L 810.9,750.0 L 807.2,754.5 L 803.6,759.1 L 800.0,763.6 L 796.5,768.2 L 793.0,772.8 L 789.5,777.3 L 786.1,781.9 L 782.7,786.6 L 779.3,791.3 L 776.0,796.0 L 772.4,800.6 L 768.5,804.9 L 764.1,808.6 L 759.2,811.5 L 753.8,813.2 Z" fill="#f9f5ee" stroke="none"/>
  <circle cx="767.6" cy="343.2" r="61.4" fill="#0f3d26" stroke="none"/>
  <path d="M 793.5,670.0 L 796.3,669.1 L 798.8,667.6 L 801.3,666.0 L 803.9,664.8 L 806.5,663.5 L 809.0,661.8 L 811.6,660.4 L 814.2,659.2 L 816.8,657.9 L 819.3,656.3 L 821.8,654.8 L 824.4,653.6 L 827.0,652.2 L 829.5,650.5 L 832.1,649.2 L 834.7,648.0 L 837.2,646.4 L 839.7,644.9 L 842.3,643.6 L 845.0,642.3 L 847.5,640.8 L 850.0,639.2 L 852.6,638.0 L 855.2,636.7 L 857.8,635.4 L 860.4,633.9 L 862.8,632.3 L 865.5,631.1 L 868.0,629.5 L 870.5,628.0 L 873.1,626.7 L 875.7,625.4 L 878.3,624.1 L 880.8,622.6 L 883.3,621.0 L 885.9,619.8 L 888.6,618.5 L 891.1,617.1 L 893.6,615.4 L 896.2,614.1 L 898.8,612.9 L 901.3,611.3 L 903.9,609.8 L 906.5,608.5 L 909.1,607.2 L 911.7,605.9 L 914.2,604.4 L 916.7,602.9 L 919.3,601.6 L 921.9,600.3 L 924.5,599.0 L 927.1,597.5 L 929.6,595.9 L 932.2,594.7 L 934.8,593.3 L 937.4,592.1 L 939.9,590.5 L 942.2,588.4 L 943.9,585.9 L 945.3,583.4 L 946.1,580.5 L 946.4,577.5 L 946.5,574.4 L 946.5,571.3 L 946.5,568.1 L 946.5,565.0 L 946.5,561.8 L 946.5,558.7 L 946.5,555.5 L 946.5,552.4 L 946.5,549.2 L 946.5,546.1 L 946.5,543.0 L 946.5,539.8 L 946.5,536.7 L 946.5,533.5 L 946.5,530.4 L 946.5,527.2 L 946.5,524.1 L 946.5,520.9 L 946.5,517.8 L 946.5,514.6 L 946.5,511.5 L 946.5,508.3 L 946.5,505.2 L 946.5,502.0 L 946.5,498.9 L 946.5,495.8 L 946.5,492.6 L 946.5,489.5 L 946.5,486.3 L 946.5,483.2 L 946.5,480.0 L 946.4,476.9 L 945.5,474.1 L 943.1,472.5 L 940.1,472.7 L 937.4,474.0 L 934.9,475.3 L 932.4,476.9 L 929.8,478.4 L 927.2,479.6 L 924.6,480.9 L 922.0,482.3 L 919.4,483.5 L 916.8,484.9 L 914.2,486.2 L 911.5,487.4 L 909.0,488.9 L 906.5,490.4 L 903.9,491.8 L 901.3,493.1 L 898.7,494.4 L 896.1,495.7 L 893.5,497.0 L 891.0,498.5 L 888.5,500.1 L 885.8,501.3 L 883.2,502.6 L 880.6,504.0 L 878.0,505.2 L 875.4,506.6 L 873.0,508.2 L 870.4,509.6 L 867.8,510.9 L 865.2,512.2 L 862.6,513.5 L 860.0,514.8 L 857.3,516.0 L 854.8,517.6 L 852.3,519.1 L 849.7,520.4 L 847.1,521.7 L 844.5,523.1 L 842.1,524.7 L 839.4,526.0 L 836.8,527.3 L 834.2,528.6 L 831.6,529.9 L 829.0,531.3 L 826.4,532.5 L 823.8,533.9 L 821.4,535.6 L 818.8,536.9 L 816.2,538.1 L 813.7,539.7 L 811.1,541.2 L 808.5,542.5 L 805.9,543.8 L 803.3,545.1 L 800.7,546.4 L 798.1,547.7 L 795.5,549.0 L 793.0,550.5 L 790.5,552.1 L 787.8,553.3 L 785.3,554.7 L 782.7,556.2 L 780.6,558.2 L 779.3,560.8 L 778.0,563.4 L 777.5,566.4 L 777.5,569.5 L 777.5,572.7 L 777.5,575.8 L 777.5,579.0 L 777.5,582.1 L 777.5,585.2 L 777.5,588.4 L 777.5,591.5 L 777.5,594.7 L 777.5,597.8 L 777.5,601.0 L 777.5,604.1 L 777.5,607.3 L 777.5,610.4 L 777.5,613.6 L 777.5,616.7 L 777.5,619.9 L 777.5,623.0 L 777.5,626.1 L 777.5,629.3 L 777.5,632.4 L 777.5,635.6 L 777.5,638.7 L 777.5,641.9 L 777.5,645.0 L 777.5,648.2 L 777.5,651.3 L 777.5,654.5 L 777.5,657.6 L 777.7,660.7 L 778.6,663.4 L 780.1,666.0 L 782.1,667.9 L 784.6,669.4 L 787.4,670.3 L 790.4,670.5 L 793.5,670.0 Z" fill="#0f3d26" stroke="none"/>
  </g>
</svg>
